<?xml version="1.0" encoding="UTF-8" standalone="no"?>
<svg viewBox="0 0 16 16" version="1.1" xmlns="http://www.w3.org/2000/svg" xmlns:xlink="http://www.w3.org/1999/xlink">
    <!-- Generator: Sketch 3.7.2 (28276) - http://www.bohemiancoding.com/sketch -->
    <title>resume_logo_light</title>
    <desc>Created with Sketch.</desc>
    <defs></defs>
    <g id="Page-1" stroke="none" stroke-width="1" fill="none" fill-rule="evenodd">
        <g id="resume_logo_light" fill="#F6F7F7">
            <path d="M107.743964,167.987556 C107.848735,167.952 117.754063,164.906667 117.754063,164.906667 C124.869632,162.72 132.448682,166.496 134.996933,173.496889 L148.555049,210.741333 L162.113166,173.495111 C164.664969,166.494222 172.256448,162.721778 179.356036,164.906667 C179.356036,164.906667 189.261363,167.952 189.366135,167.987556 C204.130009,172.912 214.633776,185.610667 216.977812,200.645333 L216.977812,90.24 C216.977812,84.5848889 212.398063,80 206.749291,80 L90.3608072,80 C84.7120359,80 80.132287,84.5848889 80.132287,90.24 L80.132287,200.645333 C82.4763229,185.610667 92.9800897,172.913778 107.743964,167.987556 L107.743964,167.987556 Z M148.555049,94.8746667 C166.730206,94.8746667 181.518942,109.678222 181.518942,127.875556 C181.518942,146.071111 166.731982,160.876444 148.555049,160.876444 C130.378117,160.876444 115.591157,146.072889 115.591157,127.875556 C115.592933,109.678222 130.379892,94.8746667 148.555049,94.8746667 L148.555049,94.8746667 Z" id="Shape"></path>
            <path d="M183.660538,196.083556 L168.537955,237.624889 L189.509973,237.624889 L189.509973,207.031111 C189.509973,202.551111 187.256502,198.48 183.660538,196.083556 L183.660538,196.083556 Z" id="Shape"></path>
            <path d="M107.601901,207.031111 L107.601901,237.624889 L128.573919,237.624889 L113.451336,196.083556 C109.855372,198.48 107.601901,202.551111 107.601901,207.031111 L107.601901,207.031111 Z" id="Shape"></path>
            <path d="M377.132287,0 L18.867713,0 C8.56993722,0 0.221973094,8.35733333 0.221973094,18.6666667 L0.221973094,509.333333 C0.221973094,519.642667 8.56993722,528 18.867713,528 L377.132287,528 C387.430063,528 395.778027,519.642667 395.778027,509.333333 L395.778027,18.6666667 C395.778027,8.35733333 387.430063,0 377.132287,0 L377.132287,0 Z M52.1636771,66 C52.1636771,58.2684444 58.4250942,52 66.1479821,52 L230.962117,52 C238.68678,52 244.946422,58.2684444 244.946422,66 L244.946422,251.624889 C244.946422,259.356444 238.68678,265.624889 230.962117,265.624889 L66.1479821,265.624889 C58.4250942,265.624889 52.1636771,259.356444 52.1636771,251.624889 L52.1636771,66 L52.1636771,66 Z M329.852018,443.000889 L66.1479821,443.000889 C58.4250942,443.000889 52.1636771,436.732444 52.1636771,429.000889 C52.1636771,421.269333 58.4250942,415.000889 66.1479821,415.000889 L329.852018,415.000889 C337.574906,415.000889 343.836323,421.269333 343.836323,429.000889 C343.836323,436.732444 337.574906,443.000889 329.852018,443.000889 L329.852018,443.000889 Z M329.852018,344 L66.1479821,344 C58.4250942,344 52.1636771,337.731556 52.1636771,330 C52.1636771,322.268444 58.4250942,316 66.1479821,316 L329.852018,316 C337.574906,316 343.836323,322.268444 343.836323,330 C343.836323,337.731556 337.574906,344 329.852018,344 L329.852018,344 Z M329.852018,212 L296.888126,212 C289.165238,212 282.903821,205.731556 282.903821,198 C282.903821,190.268444 289.165238,184 296.888126,184 L329.852018,184 C337.574906,184 343.836323,190.268444 343.836323,198 C343.836323,205.731556 337.574906,212 329.852018,212 L329.852018,212 Z M329.852018,146 L296.888126,146 C289.165238,146 282.903821,139.731556 282.903821,132 C282.903821,124.268444 289.165238,118 296.888126,118 L329.852018,118 C337.574906,118 343.836323,124.268444 343.836323,132 C343.836323,139.731556 337.574906,146 329.852018,146 L329.852018,146 Z" id="Shape"></path>
        </g>
    </g>
</svg>